<mxfile host="app.diagrams.net" modified="2020-09-17T15:22:11.992Z" agent="5.0 (Windows NT 10.0; WOW64) AppleWebKit/537.36 (KHTML, like Gecko) Chrome/81.0.4044.138 Safari/537.36" etag="-ulVzAomzkU1G0zhMISI" version="13.7.1" type="github">
  <diagram id="u_ocVhJctb_wjDql_mSc" name="Page-1">
    <mxGraphModel dx="782" dy="437" grid="1" gridSize="10" guides="1" tooltips="1" connect="1" arrows="1" fold="1" page="1" pageScale="1" pageWidth="827" pageHeight="1169" math="0" shadow="0">
      <root>
        <mxCell id="0" />
        <mxCell id="1" parent="0" />
        <mxCell id="Yzw_YggQscu0gE9qUhRb-2" value="" style="rounded=0;whiteSpace=wrap;html=1;fillColor=#d5e8d4;strokeColor=#82b366;" vertex="1" parent="1">
          <mxGeometry x="220" y="240" width="440" height="50" as="geometry" />
        </mxCell>
        <mxCell id="Yzw_YggQscu0gE9qUhRb-3" value="" style="endArrow=classic;html=1;" edge="1" parent="1">
          <mxGeometry width="50" height="50" relative="1" as="geometry">
            <mxPoint x="100" y="220" as="sourcePoint" />
            <mxPoint x="740" y="220" as="targetPoint" />
          </mxGeometry>
        </mxCell>
        <mxCell id="Yzw_YggQscu0gE9qUhRb-4" value="" style="rounded=0;whiteSpace=wrap;html=1;fillColor=#d5e8d4;strokeColor=#82b366;" vertex="1" parent="1">
          <mxGeometry x="220" y="150" width="440" height="50" as="geometry" />
        </mxCell>
        <mxCell id="Yzw_YggQscu0gE9qUhRb-11" value="" style="shape=image;html=1;verticalAlign=top;verticalLabelPosition=bottom;labelBackgroundColor=#ffffff;imageAspect=0;aspect=fixed;image=https://cdn4.iconfinder.com/data/icons/stick-figures-in-motion/100/stickfigure_17-128.png;imageBackground=#F0F5FF;imageBorder=#000000;" vertex="1" parent="1">
          <mxGeometry x="260" y="156" width="38" height="38" as="geometry" />
        </mxCell>
        <mxCell id="Yzw_YggQscu0gE9qUhRb-12" value="" style="endArrow=none;dashed=1;html=1;entryX=0.5;entryY=1;entryDx=0;entryDy=0;" edge="1" parent="1" target="Yzw_YggQscu0gE9qUhRb-11">
          <mxGeometry width="50" height="50" relative="1" as="geometry">
            <mxPoint x="279" y="280" as="sourcePoint" />
            <mxPoint x="430" y="200" as="targetPoint" />
          </mxGeometry>
        </mxCell>
        <mxCell id="Yzw_YggQscu0gE9qUhRb-13" value="" style="shape=image;html=1;verticalAlign=top;verticalLabelPosition=bottom;labelBackgroundColor=#ffffff;imageAspect=0;aspect=fixed;image=https://cdn4.iconfinder.com/data/icons/stick-figures-in-motion/100/stickfigure_17-128.png;imageBackground=#F0F5FF;imageBorder=#000000;" vertex="1" parent="1">
          <mxGeometry x="350" y="246" width="38" height="38" as="geometry" />
        </mxCell>
        <mxCell id="Yzw_YggQscu0gE9qUhRb-16" value="" style="endArrow=none;dashed=1;html=1;exitX=0.5;exitY=0;exitDx=0;exitDy=0;" edge="1" parent="1" source="Yzw_YggQscu0gE9qUhRb-13">
          <mxGeometry width="50" height="50" relative="1" as="geometry">
            <mxPoint x="368.9000000000001" y="224.5" as="sourcePoint" />
            <mxPoint x="369" y="160" as="targetPoint" />
          </mxGeometry>
        </mxCell>
        <mxCell id="Yzw_YggQscu0gE9qUhRb-18" value="" style="shape=image;html=1;verticalAlign=top;verticalLabelPosition=bottom;labelBackgroundColor=#ffffff;imageAspect=0;aspect=fixed;image=https://cdn4.iconfinder.com/data/icons/stick-figures-in-motion/100/stickfigure_8-128.png;imageBorder=#000000;imageBackground=#F0F5FF;" vertex="1" parent="1">
          <mxGeometry x="461" y="155" width="39" height="39" as="geometry" />
        </mxCell>
        <mxCell id="Yzw_YggQscu0gE9qUhRb-19" value="" style="shape=image;html=1;verticalAlign=top;verticalLabelPosition=bottom;labelBackgroundColor=#ffffff;imageAspect=0;aspect=fixed;image=https://cdn4.iconfinder.com/data/icons/stick-figures-in-motion/100/stickfigure_8-128.png;imageBorder=#000000;imageBackground=#F0F5FF;" vertex="1" parent="1">
          <mxGeometry x="580" y="246" width="39" height="39" as="geometry" />
        </mxCell>
        <mxCell id="Yzw_YggQscu0gE9qUhRb-20" value="" style="endArrow=none;dashed=1;html=1;entryX=0.5;entryY=1;entryDx=0;entryDy=0;" edge="1" parent="1">
          <mxGeometry width="50" height="50" relative="1" as="geometry">
            <mxPoint x="480" y="275" as="sourcePoint" />
            <mxPoint x="480" y="189" as="targetPoint" />
          </mxGeometry>
        </mxCell>
        <mxCell id="Yzw_YggQscu0gE9qUhRb-21" value="" style="endArrow=none;dashed=1;html=1;exitX=0.5;exitY=0;exitDx=0;exitDy=0;" edge="1" parent="1">
          <mxGeometry width="50" height="50" relative="1" as="geometry">
            <mxPoint x="599" y="249" as="sourcePoint" />
            <mxPoint x="599" y="163" as="targetPoint" />
          </mxGeometry>
        </mxCell>
        <mxCell id="Yzw_YggQscu0gE9qUhRb-22" value="T1" style="text;html=1;strokeColor=none;fillColor=none;align=center;verticalAlign=middle;whiteSpace=wrap;rounded=0;fontStyle=1" vertex="1" parent="1">
          <mxGeometry x="258" y="300" width="40" height="20" as="geometry" />
        </mxCell>
        <mxCell id="Yzw_YggQscu0gE9qUhRb-23" value="T1+5s" style="text;html=1;strokeColor=none;fillColor=none;align=center;verticalAlign=middle;whiteSpace=wrap;rounded=0;fontStyle=1" vertex="1" parent="1">
          <mxGeometry x="348" y="300" width="40" height="20" as="geometry" />
        </mxCell>
        <mxCell id="Yzw_YggQscu0gE9qUhRb-24" value="T2+5s" style="text;html=1;strokeColor=none;fillColor=none;align=center;verticalAlign=middle;whiteSpace=wrap;rounded=0;fontStyle=1" vertex="1" parent="1">
          <mxGeometry x="580" y="300" width="40" height="20" as="geometry" />
        </mxCell>
        <mxCell id="Yzw_YggQscu0gE9qUhRb-25" value="T2" style="text;html=1;strokeColor=none;fillColor=none;align=center;verticalAlign=middle;whiteSpace=wrap;rounded=0;fontStyle=1" vertex="1" parent="1">
          <mxGeometry x="461" y="300" width="40" height="20" as="geometry" />
        </mxCell>
        <mxCell id="Yzw_YggQscu0gE9qUhRb-26" value="主播推流" style="shape=mxgraph.cisco.people.androgenous_person;html=1;pointerEvents=1;dashed=0;fillColor=#036897;strokeColor=#ffffff;strokeWidth=2;verticalLabelPosition=bottom;verticalAlign=top;align=center;outlineConnect=0;rounded=0;" vertex="1" parent="1">
          <mxGeometry x="130" y="142" width="50" height="52" as="geometry" />
        </mxCell>
        <mxCell id="Yzw_YggQscu0gE9qUhRb-27" value="观众播放" style="verticalLabelPosition=bottom;html=1;verticalAlign=top;align=center;strokeColor=none;fillColor=#00BEF2;shape=mxgraph.azure.mobile_services;pointerEvents=1;rounded=0;" vertex="1" parent="1">
          <mxGeometry x="140" y="240" width="30" height="45" as="geometry" />
        </mxCell>
      </root>
    </mxGraphModel>
  </diagram>
</mxfile>
